<svg width="96" height="96" viewBox="0 0 96 96" fill="none" xmlns="http://www.w3.org/2000/svg">
<g clip-path="url(#clip0)">
<path d="M43.951 56.4039C43.9996 56.4106 44.0102 56.4125 44.0576 56.4187C44.8501 56.5264 45.6289 56.6692 46.225 56.9357C46.7775 57.1796 47.1013 57.4883 47.397 58.0386C47.8466 58.873 47.8759 60.042 47.4696 60.9267C47.1661 61.5851 46.4999 62.1371 45.8916 62.4297C45.2599 62.7359 44.6376 62.8817 43.9238 62.9632C42.6755 63.1007 41.3272 62.842 40.2039 62.2987C39.5393 61.9742 38.7278 61.4153 38.3184 60.6953C38.0174 60.1678 38.027 59.4815 38.3932 58.9802C38.977 58.1811 40.2274 58.0052 41.1692 58.0386C41.8872 58.0664 43.18 58.2883 43.8617 58.5308C44.0507 58.5991 44.7475 58.8706 44.8691 58.9951C44.9548 59.0817 45.0103 59.2076 44.9718 59.3239C44.8161 59.8003 43.6584 60.0515 43.324 60.1019C42.4291 60.239 41.9647 59.9003 40.9472 59.4986C40.6947 59.3997 40.3581 59.2899 40.1009 59.2662C39.639 59.2222 39.0811 59.3515 38.9929 59.8558C38.9491 60.1156 39.2539 60.3587 39.4863 60.4609C40.032 60.6953 40.4757 60.7796 41.0129 60.7868C42.5997 60.8129 44.383 60.5517 45.6809 59.6321C45.8586 59.5053 46.0331 59.3197 46.035 59.0857C46.0406 58.6132 45.2123 58.3243 45.2123 58.3243C44.338 57.9598 42.7226 57.7824 41.8903 57.7139C41.017 57.6383 39.6429 57.5252 39.313 57.4766C38.9733 57.4281 38.6043 57.3596 38.3101 57.2277C38.0146 57.0942 37.7256 56.7955 37.6398 56.465C37.4876 55.8691 37.6817 55.138 38.0126 54.662C38.8799 53.4152 40.9113 52.9417 42.429 52.7536C43.8979 52.5709 46.2726 52.5727 47.7153 53.3394C47.9381 53.4588 48.0518 53.5698 48.0053 53.808C47.9113 54.255 47.5753 54.5431 47.1681 54.6694C46.7408 54.8054 45.857 54.8583 45.4689 54.8828C43.7295 54.9803 41.6275 54.9292 39.9707 55.381C39.8409 55.418 39.6167 55.4785 39.5438 55.5599C39.2845 55.8414 40.0252 55.9218 40.1838 55.954C40.231 55.9653 40.2402 55.9669 40.2894 55.9722L43.951 56.4039ZM33.6031 48.6478C33.6031 48.6478 33.886 48.2235 34.1231 47.9016C34.5547 47.3153 35.3359 46.5023 35.9242 45.9989C36.1042 45.8452 36.3163 45.6711 36.3163 45.6711C36.3163 45.6711 35.9845 45.7054 35.7964 45.7438C35.3501 45.8307 34.6956 46.2657 34.3686 46.5467C33.829 47.0087 33.2356 47.7596 33.5041 48.4268C33.5431 48.521 33.6031 48.6478 33.6031 48.6478ZM36.6029 49.4506C37.4553 49.3918 38.2538 49.1464 38.9973 48.734C39.7263 48.326 40.7987 47.5305 40.6875 46.5953C40.6537 46.2926 40.4555 46.0641 40.2053 45.9574C39.8802 45.8165 39.7106 45.8392 39.2952 45.9627C38.9935 46.051 38.8575 46.1045 38.5726 46.2676C37.7363 46.7535 36.5506 47.7933 35.9069 48.6231C35.7583 48.8188 35.6078 49.0377 35.4901 49.1877C35.4158 49.2802 35.3581 49.3651 35.3653 49.3877C35.391 49.4818 36.27 49.4732 36.6029 49.4506ZM34.4324 51.0448C34.3445 51.1378 34.2515 51.362 34.1551 51.5244C34.1035 51.6112 34.008 51.7231 33.9448 51.768C33.723 51.9311 33.535 51.9387 33.3208 51.7502C33.0205 51.4845 32.8468 51.0736 32.8344 50.6739C32.828 50.4995 32.8579 50.3065 32.8249 50.1595C32.7703 49.9112 32.5219 49.6555 32.3879 49.4182C32.2307 49.1386 32.1034 48.6511 32.0876 48.3363C32.0336 47.3548 32.551 46.4507 33.223 45.7377C33.8998 45.0166 34.7853 44.4173 35.7483 44.0094C36.6586 43.6259 37.9925 43.3646 38.9921 43.7108C39.3175 43.8223 39.7709 44.0992 39.9987 44.3893C40.0471 44.4495 40.0865 44.5146 40.1361 44.5465C40.1806 44.5748 40.2968 44.586 40.3893 44.603C40.7081 44.6583 41.1672 44.8996 41.3547 45.0604C41.7314 45.3854 41.9378 45.696 42.0333 46.1469C42.2247 47.054 41.7024 48.0492 41.1074 48.6549C40.0886 49.6973 39.0825 50.4303 37.7792 50.9405C37.2068 51.1641 36.3153 51.373 35.6658 51.3146C35.4641 51.2979 35.257 51.2447 35.0606 51.2317C34.9603 51.2231 34.5939 51.1285 34.5547 51.1019C34.5062 51.0646 34.4434 51.0321 34.4324 51.0448ZM35.5964 53.0559C35.6361 53.0626 35.6973 53.0804 35.7499 53.1006C36.2068 53.2744 36.3947 53.6973 36.5073 54.1617C36.7681 55.2403 36.8794 57.6263 36.9228 58.5602C36.9547 59.2612 36.9722 59.9509 37.0016 60.6438C37.0265 61.2306 37.0733 62.0107 36.951 62.5604C36.9065 62.7582 36.7743 62.9881 36.5849 63.1059C36.368 63.2447 35.8742 63.2553 35.6028 63.1993C34.9338 63.061 34.7165 62.6308 34.621 61.9693C34.3941 60.3906 34.5034 57.2924 34.6373 55.9851C34.6818 55.5533 34.8444 54.1697 35.0699 53.5896C35.1469 53.394 35.3108 53 35.5964 53.0559ZM15.2452 55.6825C15.2452 55.6825 14.2495 55.7529 13.5643 55.829C12.6925 55.9229 11.0543 56.2057 10.1088 56.5434C9.82516 56.6449 9.24902 56.886 9.19895 57.1777C9.14633 57.4799 9.33394 57.7163 9.54259 57.9609C9.66324 58.1029 10.3461 58.7598 10.5376 58.9195C11.3403 59.5896 12.9678 60.623 14.1666 61.1249C14.5784 61.2953 15.2597 61.5392 15.2597 61.5392C15.2597 61.5392 15.2091 59.5993 15.2182 57.6885C15.2234 56.6805 15.2452 55.6825 15.2452 55.6825ZM33.5011 56.4545C33.5581 56.9756 33.4242 57.961 33.401 58.0909C33.3586 58.3905 33.1327 59.0815 33.0952 59.1658C32.9128 59.5857 32.7331 59.9298 32.5425 60.273C32.2161 60.8606 31.4397 61.792 30.9789 62.1907C29.2651 63.672 26.612 64.5154 24.336 64.7932C22.7916 64.9797 21.017 64.9524 19.3806 64.6496C18.8174 64.5471 17.9792 64.354 17.9792 64.354C17.9792 64.354 17.982 64.6891 17.9551 64.9247C17.9421 65.0323 17.8611 65.3153 17.8157 65.407C17.6968 65.6528 17.5014 65.7796 17.2173 65.8341C16.8745 65.8978 16.5109 65.919 16.1941 65.7835C15.6739 65.5647 15.4872 65.078 15.3965 64.5168C15.3232 64.0679 15.2465 63.2876 15.2465 63.2876C15.2465 63.2876 14.8574 63.1033 14.5329 62.9414C13.5363 62.4504 12.5898 61.8554 11.7617 61.2435C11.5323 61.0723 10.5467 60.2468 10.3291 60.0419C9.71912 59.4628 9.17035 58.8866 8.75288 58.1473C8.42833 57.5698 8.33488 57.0572 8.58172 56.4452C8.9221 55.5923 10.145 54.95 10.982 54.584C11.5963 54.3128 13.5066 53.6891 14.3 53.5735C14.6748 53.5199 15.2562 53.4158 15.2919 53.3925C15.3065 53.3813 15.3166 53.3718 15.3272 53.3598C15.3455 53.334 15.3764 52.4896 15.3704 52.1808C15.3626 51.8771 15.5951 49.8825 15.6699 49.4607C15.7088 49.2326 15.8816 48.3545 16.0579 48.1241C16.1733 47.9683 16.3773 47.9809 16.5436 48.0831C17.4537 48.6491 17.7302 50.6117 17.7979 51.6103C17.8384 52.2188 17.8585 53.134 17.8585 53.134C17.8585 53.134 18.9025 53.1031 19.5448 53.1213C20.1689 53.1358 20.8568 53.2343 21.5045 53.3375C22.3338 53.4705 23.9503 53.8231 24.8774 54.2931C25.6408 54.6801 26.3553 55.3322 26.5869 56.0223C26.8019 56.6549 26.7697 57.0927 26.4421 57.6637C26.0737 58.3084 25.377 58.7875 24.6705 58.8276C24.4603 58.8397 23.669 58.7346 23.4255 58.5461C23.33 58.4709 23.3349 58.3353 23.4038 58.2433C23.43 58.211 23.7998 58.0144 24.0182 57.8996C24.1276 57.8401 24.2182 57.776 24.3036 57.6981C24.485 57.5384 24.6482 57.3626 24.63 57.1565C24.6049 56.8889 24.3218 56.7239 24.052 56.6178C22.7861 56.1149 20.2584 55.6974 19.037 55.6252C18.5589 55.5971 17.8788 55.5731 17.8788 55.5731L18.0226 62.3179C18.0226 62.3179 18.5849 62.425 19.0279 62.4968C19.2822 62.5354 20.3594 62.6323 20.6456 62.6394C22.8252 62.6969 25.2579 62.5018 27.2581 61.5579C28.1363 61.1446 28.9419 60.6301 29.5519 59.9336C30.3557 59.0119 30.7767 57.7506 30.6653 56.4332C30.5432 54.9944 29.5306 53.2864 28.7219 52.2464C26.5854 49.4988 22.9231 47.2386 19.701 45.9135C16.4116 44.5615 13.1605 43.7838 9.66949 43.6536C8.76951 43.6202 6.8072 43.6656 5.81526 43.94C5.67358 43.98 5.53076 44.0277 5.3992 44.0572C5.29527 44.0827 5.1315 44.1515 5.08653 44.1878C5.06163 44.208 5.03699 44.2359 5.03699 44.2359C5.03699 44.2359 5.09815 44.2697 5.15658 44.2944C5.26165 44.3402 5.70394 44.3677 5.93283 44.4096C6.1376 44.4481 6.35083 44.5557 6.43522 44.7057C6.51539 44.8483 6.52542 44.9608 6.42959 45.0798C6.20484 45.3531 5.35889 45.307 4.98639 45.248C4.59928 45.1864 4.1173 45.0679 4.02877 44.7309C3.92608 44.3339 4.11466 43.9448 4.31838 43.585C4.72767 42.8653 5.31392 42.4909 6.17245 42.2565C7.39187 41.9209 8.93161 41.6863 10.0831 41.6423C12.6893 41.5439 15.1559 41.9996 17.6811 42.7663C19.1263 43.2033 21.0184 43.9366 22.4036 44.6035C23.3976 45.0828 24.9636 45.9641 25.8434 46.5401C26.1208 46.7232 27.7445 47.9162 27.9967 48.1259C28.5229 48.556 29.211 49.1743 29.7094 49.6688C30.6735 50.6242 31.8727 52.0887 32.4552 53.2511C32.5954 53.5295 32.704 53.8033 32.8849 54.1259C32.9471 54.2364 33.2132 54.8975 33.2575 55.0885C33.3013 55.2774 33.3655 55.5551 33.3746 55.5661C33.3874 55.6676 33.5108 56.2355 33.5011 56.4545ZM66.2656 54.9631C65.0451 55.2446 61.8356 55.4009 61.8356 55.4009L61.4309 56.6686C61.4309 56.6686 63.0348 56.5317 64.2016 56.6535C64.2016 56.6535 64.5797 56.6096 64.6241 57.0827C64.6391 57.5239 64.5866 57.9974 64.5866 57.9974C64.5866 57.9974 64.5624 58.2838 64.1565 58.3567C63.7165 58.43 60.6995 58.5467 60.6995 58.5467L60.2109 60.1991C60.2109 60.1991 60.0293 60.5812 60.4363 60.4721C60.8143 60.3709 63.9756 59.7777 64.3874 59.8631C64.8286 59.9726 65.3169 60.5609 65.1758 61.097C65.0075 61.7615 61.8523 63.7738 59.9308 63.6333C59.9308 63.6333 58.9211 63.6985 58.0677 62.3358C57.2728 61.0373 58.3689 58.5785 58.3689 58.5785C58.3689 58.5785 57.8665 57.4308 58.2305 57.0417C58.2305 57.0417 58.4472 56.8451 59.0788 56.8007L59.8521 55.2007C59.8521 55.2007 58.9712 55.2614 58.4472 54.6133C57.9591 53.9986 57.9181 53.716 58.2924 53.5463C58.6926 53.3486 62.361 52.6791 64.8853 52.764C64.8853 52.764 65.7625 52.6779 66.5234 54.1996C66.5236 54.1997 66.8921 54.815 66.2656 54.9631ZM56.7711 61.1149C56.4477 61.8758 55.5931 62.6879 54.5315 62.1831C53.4835 61.6773 51.8142 58.2608 51.8142 58.2608C51.8142 58.2608 51.1805 56.9868 51.0586 57.0196C51.0586 57.0196 50.9217 56.7708 50.8377 58.163C50.7505 59.5493 50.8546 62.2524 50.3016 62.6778C49.7777 63.1045 49.1434 62.9346 48.8144 62.4362C48.5154 61.9452 48.391 60.7784 48.5541 58.7291C48.7459 56.6759 49.2229 54.4914 49.8323 53.8111C50.4408 53.1355 50.9294 53.626 51.1198 53.8039C51.1198 53.8039 51.9338 54.5417 53.2761 56.7082L53.513 57.1089C53.513 57.1089 54.7329 59.1557 54.8603 59.151C54.8603 59.151 54.96 59.2451 55.0489 59.1775C55.1769 59.1409 55.1253 58.4846 55.1253 58.4846C55.1253 58.4846 54.8722 56.2539 53.7593 52.4784C53.7593 52.4784 53.5911 52.0076 53.7049 51.5664C53.8179 51.1206 54.2647 51.3299 54.2647 51.3299C54.2647 51.3299 55.9895 52.1971 56.8268 55.0053C57.6585 57.8143 57.0996 60.3482 56.7711 61.1149ZM75.3343 59.433C74.5492 60.8029 72.3326 63.6714 69.3869 62.9941C68.4142 65.353 67.597 67.7393 67.1297 71.31C67.1297 71.31 67.027 72.0039 66.4504 71.7629C65.8789 71.5628 64.9375 70.6127 64.7471 69.2983C64.5423 67.5716 65.3109 64.6527 66.882 61.3058C66.4238 60.5609 66.1114 59.4966 66.3788 57.9812C66.3788 57.9812 66.7734 55.167 69.5997 52.6306C69.5997 52.6306 69.9385 52.338 70.1349 52.4281C70.3513 52.5189 70.2511 53.4346 70.0794 53.8799C69.901 54.3226 68.6428 56.5009 68.6428 56.5009C68.6428 56.5009 67.8579 57.9725 68.0788 59.1332C69.5611 56.8543 72.9306 52.2587 75.0191 53.7079C75.7206 54.2099 76.044 55.3017 76.044 56.4782C76.0445 57.5115 75.7953 58.6099 75.3343 59.433ZM74.7248 55.8238C74.7248 55.8238 74.6086 54.9177 73.7228 55.9159C72.9609 56.7583 71.5867 58.3365 70.4804 60.48C71.6411 60.3497 72.7607 59.72 73.0992 59.3992C73.6496 58.9109 74.9316 57.5861 74.7248 55.8238ZM91.5616 55.6175H86.163C86.0554 53.7826 85.8339 51.9953 85.4856 50.1545C85.4499 49.964 85.2841 49.8258 85.0911 49.8258H83.8466C83.7382 49.8258 83.6357 49.8745 83.5655 49.9594C83.4951 50.0457 83.4675 50.1555 83.4882 50.2631C83.8419 52.0444 84.0658 53.7976 84.1764 55.6193H78.9825C78.7405 55.6193 78.5439 55.8153 78.5439 56.0563V57.1788C78.5439 57.4204 78.7405 57.6178 78.9825 57.6178H84.2507C84.2541 57.8948 84.2568 58.1429 84.2568 58.3756C84.2568 59.9934 84.187 61.3261 84.024 62.83C84.0111 62.9462 84.0491 63.062 84.1279 63.1472C84.2043 63.2332 84.3144 63.2822 84.4286 63.2822H85.5829C85.8082 63.2822 85.9948 63.1127 86.0174 62.8884C86.1751 61.3743 86.2427 60.0251 86.2427 58.3755C86.2427 58.1436 86.2402 57.8947 86.2368 57.6177H91.5617C91.8031 57.6177 92.0001 57.4203 92.0001 57.1787V56.0562C92 55.8141 91.803 55.6175 91.5616 55.6175Z" fill="#101C50"/>
<path d="M19.3747 40.5754C19.2983 40.6891 19.2798 40.8286 19.3237 40.9596C19.3695 41.0904 19.4693 41.1898 19.5981 41.235L20.5658 41.5607C20.6243 41.579 20.6825 41.5886 20.7395 41.5886C20.9189 41.5886 21.0872 41.4998 21.1869 41.3507C24.3569 36.6938 28.647 32.8165 33.5944 30.1377C38.7019 27.3719 44.4887 25.9089 50.3309 25.9089C57.3875 25.9089 64.196 27.9904 70.021 31.9281C75.7047 35.7689 80.1188 41.1276 82.7862 47.425C82.8659 47.6135 83.05 47.735 83.2539 47.735H84.4097C84.5428 47.735 84.6681 47.668 84.7434 47.5566C84.8191 47.4456 84.8333 47.3045 84.783 47.1796C82.0325 40.4087 77.3813 34.6366 71.3306 30.4898C65.1364 26.2444 57.8748 24 50.3309 24C37.8595 24 26.2867 30.1966 19.3747 40.5754Z" fill="url(#paint0_linear)"/>
</g>
<defs>
<linearGradient id="paint0_linear" x1="85.8842" y1="39.4324" x2="20.6757" y2="30.6159" gradientUnits="userSpaceOnUse">
<stop stop-color="#101C50"/>
<stop offset="0.236" stop-color="#0D267A"/>
<stop offset="0.4973" stop-color="#085AA4"/>
<stop offset="0.6549" stop-color="#058BBF"/>
<stop offset="1" stop-color="#B1FFFF"/>
</linearGradient>
<clipPath id="clip0">
<rect width="88" height="47.8138" fill="white" transform="translate(4 24)"/>
</clipPath>
</defs>
</svg>
