<svg width="96" height="96" viewBox="0 0 96 96" fill="none" xmlns="http://www.w3.org/2000/svg">
<g clip-path="url(#clip0)">
<path d="M47.5986 61.0774V61.0335C47.6426 60.9785 47.7196 60.9455 47.7856 60.9565C48.1045 60.9455 48.4123 60.9455 48.7312 60.9565C48.7972 60.9565 48.8742 60.9785 48.9182 61.0335V61.0774H47.5986Z" fill="#D1EFFA"/>
<path d="M48.9181 61.0335C48.4783 61.0225 48.0384 61.0225 47.5986 61.0335C46.9938 61.0005 46.3891 60.9785 45.7843 60.9345C44.1789 60.8136 42.5845 60.5716 41.0231 60.2088C35.6241 58.9552 30.8849 56.4372 26.7504 52.7756C26.3656 52.4347 26.0027 52.0828 25.6289 51.731C25.5409 51.654 25.4639 51.544 25.4199 51.4341C25.354 51.2801 25.387 51.1152 25.4969 50.9942C25.6069 50.8733 25.7828 50.8293 25.9367 50.8953C26.0357 50.9393 26.1347 50.9832 26.2226 51.0382C30.1702 53.4793 34.4805 55.2606 38.9998 56.3162C40.5173 56.6681 42.0457 56.943 43.5851 57.1409C45.7953 57.4158 48.0275 57.5148 50.2486 57.4378C51.4472 57.4048 52.6347 57.2949 53.8223 57.1409C56.5932 56.7891 59.3312 56.1623 61.9812 55.2826C63.3777 54.8208 64.7412 54.293 66.0717 53.6772C66.2696 53.5673 66.5115 53.5343 66.7314 53.5893C67.0943 53.6772 67.3142 54.0511 67.2262 54.414C67.2152 54.4579 67.1933 54.5129 67.1713 54.5569C67.0833 54.7218 66.9623 54.8648 66.8084 54.9747C65.5439 55.9644 64.1804 56.833 62.7399 57.5588C60.0239 58.9333 57.121 59.9119 54.1302 60.4727C52.4038 60.7806 50.6665 60.9675 48.9181 61.0335Z" fill="#00A8E1"/>
<path d="M32.6333 38.7448C32.9082 38.5799 33.1941 38.404 33.491 38.25C34.2607 37.8542 35.1184 37.6562 35.987 37.7002C36.6138 37.7332 37.1856 37.9091 37.6254 38.371C38.0433 38.7998 38.1972 39.3276 38.2412 39.8994C38.2522 40.0203 38.2522 40.1413 38.2522 40.2732V45.9691C38.2522 46.4639 38.1862 46.5299 37.6914 46.5299H36.3499C36.2619 46.5299 36.174 46.5299 36.086 46.5189C35.954 46.5079 35.8441 46.398 35.8221 46.266C35.8001 46.145 35.8001 46.0241 35.8001 45.9031V40.812C35.8111 40.6031 35.7891 40.4052 35.7341 40.2073C35.6462 39.8664 35.3383 39.6245 34.9864 39.6025C34.3376 39.5585 33.6889 39.6905 33.0951 39.9654C33.0071 39.9874 32.9522 40.0753 32.9632 40.1633V45.9471C32.9632 46.0571 32.9632 46.156 32.9412 46.266C32.9412 46.4199 32.8202 46.5299 32.6663 46.5299C32.5013 46.5409 32.3364 46.5409 32.1605 46.5409H30.9949C30.5881 46.5409 30.5001 46.4419 30.5001 46.0351V40.834C30.5001 40.6471 30.4891 40.4492 30.4451 40.2623C30.3681 39.8884 30.0493 39.6245 29.6754 39.6025C29.0156 39.5585 28.3449 39.6905 27.7511 39.9764C27.6632 39.9984 27.6082 40.0973 27.6302 40.1853V46.0461C27.6302 46.4529 27.5422 46.5409 27.1353 46.5409H25.6619C25.277 46.5409 25.1781 46.4309 25.1781 46.0571V38.4259C25.1781 38.338 25.1891 38.25 25.2111 38.162C25.2551 38.0301 25.387 37.9531 25.519 37.9531H26.8934C27.0914 37.9531 27.2123 38.0741 27.2783 38.261C27.3333 38.4149 27.3663 38.5579 27.4212 38.7228C27.5312 38.7228 27.5972 38.6459 27.6741 38.6019C28.2789 38.228 28.9167 37.9091 29.6314 37.7772C30.1812 37.6672 30.731 37.6672 31.2808 37.7772C31.7976 37.8871 32.2594 38.195 32.5563 38.6349C32.5783 38.6679 32.6003 38.6898 32.6223 38.7118C32.6113 38.7228 32.6223 38.7228 32.6333 38.7448Z" fill="#00A8E1"/>
<path d="M55.4277 44.2208C55.4937 44.0009 55.5597 43.7919 55.6256 43.572C56.1314 41.8677 56.6373 40.1743 57.1431 38.4699L57.209 38.272C57.264 38.0741 57.451 37.9531 57.6489 37.9531H59.3202C59.7381 37.9531 59.8261 38.0741 59.6831 38.4699L59.0234 40.2183C58.2866 42.1316 57.5499 44.0558 56.8132 45.9691C56.7912 46.0351 56.7582 46.1011 56.7362 46.167C56.6593 46.398 56.4283 46.5519 56.1864 46.5299C55.7026 46.5189 55.2188 46.5189 54.735 46.5299C54.3941 46.5409 54.1962 46.387 54.0752 46.0791C53.8003 45.3533 53.5144 44.6166 53.2395 43.8909C52.5798 42.1645 51.909 40.4382 51.2493 38.7008C51.1833 38.5689 51.1393 38.415 51.1063 38.272C51.0734 38.0521 51.1503 37.9421 51.3702 37.9421C51.997 37.9311 52.6238 37.9421 53.2395 37.9421C53.5034 37.9421 53.6244 38.1181 53.6904 38.349C53.8113 38.7668 53.9323 39.1957 54.0642 39.6135C54.5151 41.1419 54.9549 42.6814 55.4057 44.2098C55.3947 44.2208 55.4057 44.2208 55.4277 44.2208Z" fill="#232F3E"/>
<path d="M16.3813 39.1627C16.4583 39.1407 16.5243 39.0967 16.5683 39.0307C16.7662 38.8328 16.9751 38.6459 17.195 38.4699C17.7668 38.0301 18.4816 37.8102 19.1963 37.8652C19.4822 37.8762 19.5811 37.9641 19.6031 38.239C19.6251 38.6129 19.6141 38.9977 19.6141 39.3716C19.6251 39.5255 19.6141 39.6685 19.5921 39.8224C19.5482 40.0204 19.4712 40.0973 19.2733 40.1193C19.1193 40.1303 18.9764 40.1193 18.8224 40.1083C18.0857 40.0423 17.371 40.1853 16.6782 40.4162C16.5243 40.4712 16.5243 40.5811 16.5243 40.7021V45.9801C16.5243 46.0791 16.5243 46.167 16.5133 46.266C16.5023 46.409 16.3923 46.5189 16.2494 46.5189C16.1724 46.5299 16.0845 46.5299 16.0075 46.5299H14.578C14.5011 46.5299 14.4131 46.5299 14.3361 46.5189C14.1932 46.5079 14.0832 46.387 14.0722 46.244C14.0612 46.1561 14.0612 46.0681 14.0612 45.9801V38.5029C14.0612 37.9971 14.1162 37.9421 14.622 37.9421H15.6776C15.9635 37.9421 16.0955 38.0411 16.1724 38.316C16.2494 38.5909 16.3154 38.8658 16.3813 39.1627Z" fill="#00A8E1"/>
<path d="M67.8201 50.3125C68.5458 50.3345 69.2605 50.3785 69.9643 50.5654C70.1622 50.6204 70.3491 50.6863 70.536 50.7743C70.7889 50.8733 70.9539 51.1152 70.9869 51.3791C71.0309 51.687 71.0419 52.0059 71.0199 52.3247C70.8769 54.205 70.2941 56.0193 69.3265 57.6357C68.9746 58.2185 68.5458 58.7463 68.051 59.2082C67.952 59.3071 67.8311 59.3841 67.6991 59.4281C67.4902 59.483 67.3582 59.3731 67.3472 59.1642C67.3582 59.0542 67.3802 58.9443 67.4242 58.8343C67.8091 57.8007 68.1829 56.7781 68.4798 55.7115C68.6557 55.1287 68.7767 54.5349 68.8537 53.9301C68.8757 53.7102 68.8867 53.4903 68.8647 53.2704C68.8537 52.8965 68.6118 52.5776 68.2489 52.4677C67.908 52.3577 67.5562 52.2917 67.1933 52.2698C66.1817 52.2258 65.1701 52.2698 64.1694 52.4017L62.8389 52.5666C62.696 52.5776 62.564 52.5666 62.4871 52.4347C62.4101 52.3027 62.4431 52.1708 62.52 52.0388C62.608 51.9179 62.718 51.8079 62.8499 51.731C63.6636 51.1482 64.5763 50.7963 65.5439 50.5654C66.2916 50.4114 67.0504 50.3345 67.8201 50.3125Z" fill="#00A8E1"/>
<path d="M63.2128 42.2415V46.2C63.1908 46.42 63.0918 46.5189 62.8719 46.5299C62.2782 46.5409 61.6954 46.5409 61.1016 46.5299C60.8817 46.5299 60.7827 46.42 60.7607 46.211C60.7497 46.1451 60.7497 46.0681 60.7497 46.0021V38.393C60.7607 38.0521 60.8487 37.9531 61.1896 37.9531H62.773C63.1138 37.9531 63.2128 38.0521 63.2128 38.393V42.2415Z" fill="#232F3E"/>
<path d="M20.6697 42.2195V38.316C20.6807 38.0521 20.7797 37.9531 21.0436 37.9421C21.6154 37.9311 22.1872 37.9311 22.759 37.9421C23.0119 37.9421 23.0888 38.0191 23.1108 38.272C23.1218 38.371 23.1218 38.4589 23.1218 38.5579V45.8812C23.1218 46.0021 23.1108 46.1231 23.0998 46.244C23.0888 46.387 22.9789 46.4859 22.8359 46.4969C22.77 46.5079 22.715 46.5079 22.649 46.5079H21.1206C21.0656 46.5079 21.0216 46.5079 20.9666 46.4969C20.8127 46.4859 20.6807 46.365 20.6697 46.211C20.6588 46.1231 20.6588 46.0351 20.6588 45.9471C20.6697 44.7266 20.6697 43.4731 20.6697 42.2195Z" fill="#00A8E1"/>
<path d="M21.9453 34.0056C22.1212 33.9946 22.2971 34.0276 22.4621 34.0826C23.0558 34.2805 23.3637 34.7973 23.3087 35.4681C23.2648 36.0398 22.8359 36.5017 22.2641 36.5896C22.0222 36.6336 21.7693 36.6336 21.5274 36.5896C20.9007 36.4687 20.4388 36.0069 20.4828 35.2151C20.5488 34.4344 21.0656 34.0056 21.9453 34.0056Z" fill="#00A8E1"/>
<path d="M61.9923 34.0056C62.2122 33.9836 62.4321 34.0276 62.641 34.1156C63.0699 34.2805 63.3668 34.6764 63.3888 35.1382C63.4767 36.1388 62.806 36.6446 61.9153 36.6226C61.7943 36.6226 61.6734 36.6006 61.5524 36.5786C60.8707 36.4137 60.5188 35.8859 60.5848 35.1272C60.6398 34.5224 61.1126 34.0716 61.7613 34.0166C61.8383 34.0056 61.9153 33.9946 61.9923 34.0056Z" fill="#232F3E"/>
<path d="M12.4338 41.3179C12.3899 40.7461 12.2359 40.1853 12.005 39.6685C11.5542 38.7228 10.8614 38.0301 9.80582 37.7882C8.59628 37.5243 7.50768 37.7882 6.51806 38.5249C6.45208 38.5909 6.37511 38.6459 6.28714 38.6898C6.26515 38.6788 6.24316 38.6678 6.24316 38.6569C6.21017 38.5469 6.18818 38.4369 6.15519 38.327C6.06722 38.0521 5.95727 37.9531 5.66038 37.9531C5.3305 37.9531 4.98963 37.9641 4.65975 37.9531C4.40685 37.9421 4.17593 37.9751 4 38.173C4 42.0216 4 45.8811 4.011 49.7187C4.15394 49.9496 4.37386 49.9936 4.62677 49.9826C5.02262 49.9716 5.41847 49.9826 5.81432 49.9826C6.50706 49.9826 6.50706 49.9826 6.50706 49.3009V46.167C6.50706 46.0901 6.47407 46.0021 6.55104 45.9361C7.10084 46.365 7.77159 46.6289 8.46433 46.6948C9.43196 46.7938 10.3116 46.5519 11.0484 45.8921C11.5872 45.3973 11.983 44.7596 12.1919 44.0558C12.4888 43.1542 12.5108 42.2415 12.4338 41.3179ZM9.80582 43.594C9.72885 43.9349 9.55292 44.2428 9.30001 44.4737C9.01412 44.7156 8.66225 44.8585 8.28839 44.8585C7.7276 44.8915 7.17781 44.7706 6.68299 44.5067C6.56204 44.4517 6.48507 44.3307 6.49606 44.1988V42.2085C6.49606 41.5488 6.50706 40.889 6.49606 40.2293C6.48507 40.0753 6.57304 39.9434 6.71598 39.8884C7.32076 39.6025 7.94752 39.4705 8.60727 39.6025C9.0691 39.6685 9.46495 39.9654 9.65188 40.3942C9.81682 40.7461 9.91578 41.1309 9.93777 41.5158C10.0037 42.2195 10.0037 42.9233 9.80582 43.594Z" fill="#00A8E1"/>
<path d="M91.989 41.5598V41.6037C91.945 41.5598 91.923 41.4938 91.945 41.4388V41.3508C91.945 41.3508 91.945 41.3398 91.956 41.3398H91.945V41.2299H91.967C91.967 41.2189 91.956 41.2189 91.956 41.2079C91.934 40.999 91.89 40.7901 91.8351 40.5921C91.4282 39.1407 90.5156 38.184 89.0311 37.8102C88.3384 37.6452 87.6346 37.6232 86.9309 37.7332C85.4465 37.9531 84.3799 38.7448 83.8631 40.1523C83.3572 41.4938 83.3682 42.9672 83.8741 44.3087C84.3139 45.5293 85.1936 46.299 86.4581 46.6179C87.1288 46.7828 87.8326 46.8268 88.5253 46.7278C90.8344 46.4529 91.7911 44.7046 91.945 43.1872H91.934V43.0332C91.923 42.9672 91.912 42.9123 91.978 42.8683V42.8903C91.978 42.8793 91.989 42.8573 92 42.8463V41.5818C92 41.5708 91.989 41.5708 91.989 41.5598ZM89.35 43.649C89.284 43.8799 89.1851 44.0888 89.0421 44.2867C88.8002 44.6276 88.4153 44.8475 87.9975 44.8805C87.7886 44.9025 87.5797 44.9025 87.3707 44.8585C86.9089 44.7706 86.5241 44.4627 86.3371 44.0338C86.1722 43.693 86.0732 43.3191 86.0402 42.9452C85.9853 42.2965 85.9743 41.6477 86.1282 41.01C86.1832 40.7571 86.2931 40.5042 86.4251 40.2842C86.667 39.8884 87.0848 39.6355 87.5467 39.6025C87.7556 39.5805 87.9645 39.5805 88.1734 39.6245C88.6133 39.7125 88.9761 39.9984 89.1741 40.4052C89.361 40.7901 89.471 41.2189 89.4929 41.6477C89.5039 41.8457 89.5149 42.0436 89.5039 42.2415C89.5369 42.7253 89.4819 43.1982 89.35 43.649Z" fill="#232F3E"/>
<path d="M72.7133 34.0826H71.1848C70.767 34.0826 70.69 34.1596 70.69 34.5774V38.1401C70.69 38.217 70.723 38.294 70.668 38.371C70.5691 38.36 70.5141 38.294 70.4371 38.25C69.2935 37.5793 68.095 37.4583 66.8854 38.0191C66.0388 38.415 65.5109 39.1297 65.1701 39.9764C64.8402 40.7901 64.7632 41.6477 64.7852 42.5164C64.7852 43.3301 64.9721 44.1328 65.335 44.8585C65.7529 45.6612 66.3576 46.277 67.2373 46.5409C68.4358 46.9148 69.5574 46.7278 70.58 45.9691C70.657 45.9251 70.701 45.8482 70.8 45.8262C70.8549 45.9471 70.8989 46.0791 70.9209 46.211C70.9649 46.387 71.1188 46.5079 71.3058 46.5079H71.5697C71.9655 46.5079 72.3504 46.5189 72.7352 46.5079C73.0431 46.5079 73.1311 46.409 73.1421 46.0901V34.5004C73.1311 34.1596 73.0431 34.0826 72.7133 34.0826ZM70.701 42.1755V44.1768C70.723 44.3087 70.646 44.4297 70.5251 44.4847C69.9973 44.7816 69.3925 44.9025 68.7987 44.8146C68.2929 44.7596 67.8531 44.4517 67.6222 44.0009C67.4462 43.649 67.3473 43.2751 67.3143 42.8903C67.2263 42.1975 67.2813 41.4938 67.4462 40.8231C67.5012 40.6361 67.5672 40.4602 67.6661 40.2843C67.8971 39.8554 68.3369 39.5805 68.8207 39.5475C69.4035 39.4926 69.9863 39.6025 70.5141 39.8444C70.646 39.8884 70.723 40.0204 70.712 40.1633C70.69 40.845 70.701 41.5048 70.701 42.1755Z" fill="#232F3E"/>
<path d="M42.2657 42.9342C43.0904 43.0882 43.937 43.0992 44.7617 42.9672C45.2455 42.9013 45.7074 42.7583 46.1362 42.5274C46.631 42.2415 46.9939 41.8457 47.1478 41.2959C47.5327 39.9104 46.9389 38.5139 45.4985 37.9971C44.7947 37.7662 44.047 37.6892 43.3103 37.7882C41.5729 37.9861 40.4403 38.9427 39.9235 40.6031C39.5607 41.7357 39.6047 42.8903 39.9015 44.0338C40.2864 45.4963 41.254 46.365 42.7165 46.6728C43.5522 46.8598 44.3989 46.8268 45.2346 46.6948C45.6744 46.6179 46.1142 46.5079 46.5321 46.343C46.785 46.244 46.9169 46.0901 46.9059 45.8042C46.8949 45.5403 46.9059 45.2654 46.9059 44.9905C46.9059 44.6606 46.774 44.5616 46.4551 44.6386C46.1362 44.7156 45.8283 44.7816 45.5094 44.8475C44.8277 44.9905 44.124 44.9905 43.4422 44.8695C42.5076 44.6826 41.9028 43.8799 41.9578 42.8903C42.0567 42.9013 42.1667 42.9123 42.2657 42.9342ZM41.9908 41.2519C42.0238 40.988 42.1007 40.7351 42.1997 40.4932C42.5296 39.6905 43.2223 39.4156 43.926 39.4596C44.124 39.4705 44.3219 39.5145 44.5088 39.5915C44.7947 39.7125 44.9816 39.9764 45.0146 40.2842C45.0476 40.4712 45.0366 40.6691 44.9816 40.856C44.8497 41.2519 44.5308 41.4168 44.146 41.4938C43.915 41.5488 43.6731 41.5708 43.4312 41.5488C43.0024 41.5488 42.5626 41.5158 42.1337 41.4498C41.9688 41.4278 41.9688 41.4278 41.9908 41.2519Z" fill="#00A8E1"/>
<path d="M79.3547 43.0442C79.9925 43.0002 80.6303 42.8793 81.202 42.5714C81.7848 42.2855 82.1917 41.7467 82.3126 41.1089C82.3896 40.7131 82.3896 40.2953 82.3016 39.8994C82.0707 38.9098 81.444 38.294 80.4983 37.9751C79.9705 37.8102 79.4097 37.7442 78.8599 37.7662C77.0126 37.8102 75.6051 38.7448 75.0334 40.5921C74.6485 41.8127 74.7035 43.0552 75.0773 44.2758C75.4622 45.5293 76.3419 46.288 77.5954 46.6289C78.1342 46.7608 78.695 46.8158 79.2448 46.7938C80.0475 46.7828 80.8502 46.6289 81.6089 46.343C81.9278 46.222 82.0047 46.1121 82.0047 45.7712V44.9795C81.9937 44.6606 81.8618 44.5507 81.5429 44.6276C81.301 44.6936 81.0701 44.7486 80.8282 44.8036C80.0915 44.9795 79.3217 45.0125 78.574 44.8805C77.8263 44.7376 77.3205 44.3087 77.1226 43.561C77.0676 43.3411 77.0236 43.1212 77.0016 42.8903C77.0566 42.8903 77.1116 42.8903 77.1556 42.9123C77.8813 43.0442 78.618 43.0992 79.3547 43.0442ZM77.0566 41.2849C77.1336 40.856 77.2325 40.4382 77.4964 40.0863C77.9033 39.5475 78.4641 39.3936 79.1018 39.4596C79.1568 39.4596 79.2008 39.4816 79.2558 39.4816C80.0255 39.6025 80.2124 40.2183 80.0695 40.8121C79.9595 41.2519 79.5966 41.4168 79.1898 41.4938C78.9699 41.5378 78.739 41.5598 78.508 41.5488C78.0572 41.5378 77.6174 41.5048 77.1776 41.4388C77.0786 41.4278 77.0346 41.3838 77.0566 41.2849Z" fill="#232F3E"/>
</g>
<defs>
<clipPath id="clip0">
<rect width="88" height="27.0828" fill="white" transform="translate(4 34)"/>
</clipPath>
</defs>
</svg>
