<svg width="96" height="96" viewBox="0 0 96 96" fill="none" xmlns="http://www.w3.org/2000/svg">
<path d="M70.1001 55.2913C73.8871 55.2913 76.9554 52.218 76.9554 48.4363C76.9554 44.6459 73.8871 41.5776 70.1001 41.5776C66.3135 41.5776 63.2464 44.6459 63.2464 48.4363C63.2464 52.218 66.3135 55.2913 70.1001 55.2913Z" fill="black"/>
<path d="M19.2212 52.8034V65.3479H28.5225V31.6631H19.2212V44.3461H13.3013V31.6631H4V65.3479H13.3013V52.8034H19.2212Z" fill="black"/>
<path d="M52.9595 48.4368C52.9595 39.2919 60.1152 31.8167 69.1359 31.3174H71.0611C80.0817 31.8168 87.2409 39.2919 87.2409 48.4368C87.2409 57.9 79.5681 65.5774 70.1 65.5774C60.6322 65.5774 52.9595 57.8999 52.9595 48.4368H52.9595ZM70.1 57.0075C74.8346 57.0075 78.671 53.1665 78.671 48.4368C78.671 43.7034 74.8346 39.8658 70.1 39.8658C65.3669 39.8658 61.5305 43.7034 61.5305 48.4368C61.5305 53.1665 65.3669 57.0075 70.1 57.0075Z" fill="black"/>
<path d="M44.7319 31.6631C47.2701 31.6631 54.4541 33.0747 54.4541 40.2587C54.4541 46.037 51.6745 47.7612 49.5243 48.153C47.9708 48.437 54.1701 48.153 54.1701 55.337C54.1701 65.6319 45.1532 65.3479 45.1532 65.3479H30.4928V31.6631H44.7318L44.7319 31.6631ZM38.8081 39.8659V44.939H43.7426C43.7426 44.939 45.7212 44.701 45.7212 42.2752C45.7212 39.8377 43.6751 39.8659 43.6751 39.8659H38.8081V39.8659ZM38.8081 52.2696V57.3451H43.7426C43.7426 57.3451 45.7212 57.1037 45.7212 54.6777C45.7212 52.2401 43.6751 52.2696 43.6751 52.2696H38.8081Z" fill="black"/>
<path d="M87.5375 35.8731H86.6597V31.7621H88.1977C89.2573 31.7621 89.8746 32.0616 89.8746 33.0003C89.8746 33.7571 89.448 34.0265 88.894 34.0778L89.9505 35.8731H88.903L87.9523 34.1415H87.5375V35.8731V35.8731ZM88.3158 33.4483C88.7123 33.4483 88.9363 33.3635 88.9363 32.9154C88.9363 32.4885 88.4882 32.4553 88.1551 32.4553H87.5375V33.4483H88.3158V33.4483ZM88.1763 37.6352C86.1389 37.6352 84.3315 36.2245 84.3315 33.8236C84.3315 31.4078 86.1389 30 88.1763 30C90.2077 30 91.9999 31.4078 91.9999 33.8236C91.9999 36.2245 90.2077 37.6352 88.1763 37.6352ZM88.1763 30.8871C86.6597 30.8871 85.4336 32.0616 85.4336 33.8237C85.4336 35.5736 86.6597 36.7602 88.1763 36.7481V36.7602C89.6506 36.7602 90.9131 35.5736 90.9131 33.8236C90.9131 32.0616 89.6506 30.8871 88.1763 30.8871V30.8871Z" fill="black"/>
</svg>
